<svg width="1325.2173828124999px" height="83.62248535156249px" xmlns="http://www.w3.org/2000/svg" viewBox="-412.60869140624993 33.188757324218756 1325.2173828124999 83.62248535156249" style="background:#051103" preserveAspectRatio="xMidYMid"><defs><linearGradient id="editing-glowing-gradient" x1="0.7347357813929454" x2="0.2652642186070546" y1="0.9414737964294635" y2="0.058526203570536506"><stop offset="0" stop-color="#67ff43"></stop><stop offset="1" stop-color="#90ffff"></stop></linearGradient><filter id="editing-glowing" x="-100%" y="-100%" width="300%" height="300%"><feGaussianBlur in="SourceGraphic" result="blur" stdDeviation="17.5"></feGaussianBlur><feMerge><feMergeNode in="blur"></feMergeNode><feMergeNode in="SourceGraphic"></feMergeNode></feMerge></filter></defs><g filter="url(#editing-glowing)"><g transform="translate(-229.89499634504318, 92.23999977111816)"><path d="M13.60 0L0.68 0L0.68-5.58L2.38-5.58L2.38-20.88L0.68-20.88L0.68-26.45L13.60-26.45L13.60-20.88L11.90-20.88L11.90-5.58L13.60-5.58L13.60 0ZM19.48-7.45L19.48-9.01L19.48-9.01Q19.48-10.54 20.04-11.68L20.04-11.68L20.04-11.68Q20.60-12.82 21.39-13.53L21.39-13.53L21.39-13.53Q22.17-14.25 23.39-15.10L23.39-15.10L23.39-15.10Q24.62-15.95 25.19-16.56L25.19-16.56L25.19-16.56Q25.77-17.17 25.77-18.02L25.77-18.02L25.77-18.02Q25.77-19.38 23.73-19.38L23.73-19.38L23.73-19.38Q22.13-19.38 20.16-18.77L20.16-18.77L20.16-18.77Q18.19-18.16 16.56-17.37L16.56-17.37L14.76-24.31L14.76-24.31Q17-25.36 19.96-26.15L19.96-26.15L19.96-26.15Q22.92-26.93 25.84-26.93L25.84-26.93L25.84-26.93Q28.73-26.93 30.89-26.06L30.89-26.06L30.89-26.06Q33.05-25.19 34.20-23.60L34.20-23.60L34.20-23.60Q35.36-22.00 35.36-19.89L35.36-19.89L35.36-19.89Q35.36-18.05 34.77-16.80L34.77-16.80L34.77-16.80Q34.17-15.54 33.32-14.74L33.32-14.74L33.32-14.74Q32.47-13.94 31.08-12.99L31.08-12.99L31.08-12.99Q29.92-12.17 29.22-11.56L29.22-11.56L29.22-11.56Q28.53-10.95 28.07-10.06L28.07-10.06L28.07-10.06Q27.61-9.18 27.61-7.96L27.61-7.96L27.61-7.45L19.48-7.45ZM27.57 0L19.48 0L19.48-5.58L27.57-5.58L27.57 0ZM46.38 7.55L46.38 1.97L47.87 1.97L47.87-13.33L46.38-13.33L46.38-18.90L55.69-18.90L55.69-16.59L55.69-16.59Q56.54-17.68 57.89-18.53L57.89-18.53L57.89-18.53Q59.23-19.38 60.96-19.38L60.96-19.38L60.96-19.38Q64.43-19.38 66.18-16.80L66.18-16.80L66.18-16.80Q67.93-14.21 67.93-9.45L67.93-9.45L67.93-9.45Q67.93-4.69 66.18-2.11L66.18-2.11L66.18-2.11Q64.43 0.48 60.96 0.48L60.96 0.48L60.96 0.48Q59.23 0.48 57.89-0.37L57.89-0.37L57.89-0.37Q56.54-1.22 55.69-2.31L55.69-2.31L55.69 1.97L58.04 1.97L58.04 7.55L46.38 7.55ZM57.66-5.58L57.66-5.58Q58.65-5.58 59.14-6.10L59.14-6.10L59.14-6.10Q59.64-6.63 59.64-7.75L59.64-7.75L59.64-11.15L59.64-11.15Q59.64-12.27 59.14-12.80L59.14-12.80L59.14-12.80Q58.65-13.33 57.66-13.33L57.66-13.33L57.66-13.33Q56.68-13.33 56.19-12.80L56.19-12.80L56.19-12.80Q55.69-12.27 55.69-11.15L55.69-11.15L55.69-7.75L55.69-7.75Q55.69-6.63 56.19-6.10L56.19-6.10L56.19-6.10Q56.68-5.58 57.66-5.58L57.66-5.58ZM83.40-19.38L83.40-19.38Q84.08-19.38 84.69-19.24L84.69-19.24L84.69-19.24Q85.31-19.11 85.71-18.90L85.71-18.90L85.71-12.41L85.71-12.41Q84.32-12.99 82.72-12.99L82.72-12.99L82.72-12.99Q80.58-12.99 79.42-11.87L79.42-11.87L79.42-11.87Q78.27-10.74 78.27-8.53L78.27-8.53L78.27-5.58L81.33-5.58L81.33 0L68.95 0L68.95-5.58L70.45-5.58L70.45-13.33L68.95-13.33L68.95-18.90L78.27-18.90L78.27-16.42L78.27-16.42Q79.22-17.85 80.44-18.62L80.44-18.62L80.44-18.62Q81.67-19.38 83.40-19.38L83.40-19.38ZM96.93 0.48L96.93 0.48Q92.11 0.48 89.39-2.06L89.39-2.06L89.39-2.06Q86.67-4.59 86.67-9.45L86.67-9.45L86.67-9.45Q86.67-14.31 89.39-16.85L89.39-16.85L89.39-16.85Q92.11-19.38 96.93-19.38L96.93-19.38L96.93-19.38Q101.83-19.38 104.52-16.81L104.52-16.81L104.52-16.81Q107.20-14.25 107.20-9.45L107.20-9.45L107.20-9.45Q107.20-4.59 104.48-2.06L104.48-2.06L104.48-2.06Q101.76 0.48 96.93 0.48L96.93 0.48ZM96.93-5.58L96.93-5.58Q97.92-5.58 98.41-6.10L98.41-6.10L98.41-6.10Q98.91-6.63 98.91-7.75L98.91-7.75L98.91-11.15L98.91-11.15Q98.91-12.27 98.41-12.80L98.41-12.80L98.41-12.80Q97.92-13.33 96.93-13.33L96.93-13.33L96.93-13.33Q95.95-13.33 95.46-12.80L95.46-12.80L95.46-12.80Q94.96-12.27 94.96-11.15L94.96-11.15L94.96-7.75L94.96-7.75Q94.96-6.63 95.46-6.10L95.46-6.10L95.46-6.10Q95.95-5.58 96.93-5.58L96.93-5.58ZM122.88 0.48L122.88 0.48Q121.14 0.48 119.80-0.37L119.80-0.37L119.80-0.37Q118.46-1.22 117.61-2.31L117.61-2.31L117.61 0L108.29 0L108.29-5.58L109.79-5.58L109.79-20.88L108.29-20.88L108.29-26.45L117.61-26.45L117.61-16.59L117.61-16.59Q118.46-17.68 119.80-18.53L119.80-18.53L119.80-18.53Q121.14-19.38 122.88-19.38L122.88-19.38L122.88-19.38Q126.34-19.38 128.10-16.80L128.10-16.80L128.10-16.80Q129.85-14.21 129.85-9.45L129.85-9.45L129.85-9.45Q129.85-4.69 128.10-2.11L128.10-2.11L128.10-2.11Q126.34 0.48 122.88 0.48L122.88 0.48ZM119.58-5.58L119.58-5.58Q120.56-5.58 121.06-6.10L121.06-6.10L121.06-6.10Q121.55-6.63 121.55-7.75L121.55-7.75L121.55-11.15L121.55-11.15Q121.55-12.27 121.06-12.80L121.06-12.80L121.06-12.80Q120.56-13.33 119.58-13.33L119.58-13.33L119.58-13.33Q118.59-13.33 118.10-12.80L118.10-12.80L118.10-12.80Q117.61-12.27 117.61-11.15L117.61-11.15L117.61-7.75L117.61-7.75Q117.61-6.63 118.10-6.10L118.10-6.10L118.10-6.10Q118.59-5.58 119.58-5.58L119.58-5.58ZM149.12-5.58L150.62-5.58L150.62 0L141.64 0L141.64-2.31L141.64-2.31Q140.90-1.22 139.55-0.37L139.55-0.37L139.55-0.37Q138.21 0.48 136.27 0.48L136.27 0.48L136.27 0.48Q133.72 0.48 132.26-0.88L132.26-0.88L132.26-0.88Q130.80-2.24 130.80-4.73L130.80-4.73L130.80-4.73Q130.80-11.15 141.71-11.32L141.71-11.32L141.71-11.32Q141.61-12.48 140.83-12.90L140.83-12.90L140.83-12.90Q140.05-13.33 138.18-13.33L138.18-13.33L138.18-13.33Q136.65-13.33 134.90-13.01L134.90-13.01L134.90-13.01Q133.14-12.68 131.68-12.14L131.68-12.14L131.68-18.39L131.68-18.39Q133.48-18.84 135.59-19.11L135.59-19.11L135.59-19.11Q137.70-19.38 139.71-19.38L139.71-19.38L139.71-19.38Q144.77-19.38 146.95-17.54L146.95-17.54L146.95-17.54Q149.12-15.71 149.12-11.87L149.12-11.87L149.12-5.58ZM141.64-7.75L141.64-7.96L141.64-7.96Q140.11-7.96 139.28-7.55L139.28-7.55L139.28-7.55Q138.45-7.14 138.45-6.19L138.45-6.19L138.45-6.19Q138.45-5.61 138.81-5.25L138.81-5.25L138.81-5.25Q139.16-4.90 139.81-4.90L139.81-4.90L139.81-4.90Q140.69-4.90 141.17-5.64L141.17-5.64L141.17-5.64Q141.64-6.39 141.64-7.75L141.64-7.75ZM166.29 0.48L166.29 0.48Q164.56 0.48 163.22-0.37L163.22-0.37L163.22-0.37Q161.87-1.22 161.02-2.31L161.02-2.31L161.02 0L151.71 0L151.71-5.58L153.20-5.58L153.20-20.88L151.71-20.88L151.71-26.45L161.02-26.45L161.02-16.59L161.02-16.59Q161.87-17.68 163.22-18.53L163.22-18.53L163.22-18.53Q164.56-19.38 166.29-19.38L166.29-19.38L166.29-19.38Q169.76-19.38 171.51-16.80L171.51-16.80L171.51-16.80Q173.26-14.21 173.26-9.45L173.26-9.45L173.26-9.45Q173.26-4.69 171.51-2.11L171.51-2.11L171.51-2.11Q169.76 0.48 166.29 0.48L166.29 0.48ZM163.00-5.58L163.00-5.58Q163.98-5.58 164.47-6.10L164.47-6.10L164.47-6.10Q164.97-6.63 164.97-7.75L164.97-7.75L164.97-11.15L164.97-11.15Q164.97-12.27 164.47-12.80L164.47-12.80L164.47-12.80Q163.98-13.33 163.00-13.33L163.00-13.33L163.00-13.33Q162.01-13.33 161.52-12.80L161.52-12.80L161.52-12.80Q161.02-12.27 161.02-11.15L161.02-11.15L161.02-7.75L161.02-7.75Q161.02-6.63 161.52-6.10L161.52-6.10L161.52-6.10Q162.01-5.58 163.00-5.58L163.00-5.58ZM185.03 0.03L174.22 0.03L174.22-5.58L175.71-5.58L175.71-20.88L174.22-20.88L174.22-26.45L183.53-26.45L183.53-5.58L185.03-5.58L185.03 0.03ZM197.13-18.90L206.58-18.90L206.58-13.33L205.29-13.33L200.84-1.53L200.84-1.53Q199.17 2.92 197.03 5.15L197.03 5.15L197.03 5.15Q194.89 7.38 191.39 7.38L191.39 7.38L191.39 7.38Q189.96 7.38 188.50 7.09L188.50 7.09L188.50 7.09Q187.03 6.80 185.84 6.29L185.84 6.29L185.84 0.14L190.54 0.14L190.54 0.48L190.54 0.48Q190.54 1.33 191.42 1.33L191.42 1.33L191.42 1.33Q192.20 1.33 192.61 0.58L192.61 0.58L187.24-13.33L185.95-13.33L185.95-18.90L196.04-18.90L196.04-13.33L194.89-13.33L196.66-8.02L198.29-13.33L197.13-13.33L197.13-18.90ZM236.13-5.58L237.63-5.58L237.63 0L228.65 0L228.65-2.31L228.65-2.31Q227.90-1.22 226.56-0.37L226.56-0.37L226.56-0.37Q225.22 0.48 223.28 0.48L223.28 0.48L223.28 0.48Q220.73 0.48 219.27-0.88L219.27-0.88L219.27-0.88Q217.80-2.24 217.80-4.73L217.80-4.73L217.80-4.73Q217.80-11.15 228.72-11.32L228.72-11.32L228.72-11.32Q228.62-12.48 227.83-12.90L227.83-12.90L227.83-12.90Q227.05-13.33 225.18-13.33L225.18-13.33L225.18-13.33Q223.65-13.33 221.90-13.01L221.90-13.01L221.90-13.01Q220.15-12.68 218.69-12.14L218.69-12.14L218.69-18.39L218.69-18.39Q220.49-18.84 222.60-19.11L222.60-19.11L222.60-19.11Q224.71-19.38 226.71-19.38L226.71-19.38L226.71-19.38Q231.78-19.38 233.95-17.54L233.95-17.54L233.95-17.54Q236.13-15.71 236.13-11.87L236.13-11.87L236.13-5.58ZM228.65-7.75L228.65-7.96L228.65-7.96Q227.12-7.96 226.29-7.55L226.29-7.55L226.29-7.55Q225.45-7.14 225.45-6.19L225.45-6.19L225.45-6.19Q225.45-5.61 225.81-5.25L225.81-5.25L225.81-5.25Q226.17-4.90 226.81-4.90L226.81-4.90L226.81-4.90Q227.70-4.90 228.17-5.64L228.17-5.64L228.17-5.64Q228.65-6.39 228.65-7.75L228.65-7.75ZM281.76-5.58L283.25-5.58L283.25 0L272.51 0L272.51-5.58L273.94-5.58L273.94-11.15L273.94-11.15Q273.94-12.27 273.46-12.80L273.46-12.80L273.46-12.80Q272.99-13.33 272.03-13.33L272.03-13.33L272.03-13.33Q269.99-13.33 269.99-11.15L269.99-11.15L269.99-5.58L271.42-5.58L271.42 0L260.75 0L260.75-5.58L262.17-5.58L262.17-11.15L262.17-11.15Q262.17-12.27 261.70-12.80L261.70-12.80L261.70-12.80Q261.22-13.33 260.27-13.33L260.27-13.33L260.27-13.33Q258.23-13.33 258.23-11.15L258.23-11.15L258.23-5.58L259.66-5.58L259.66 0L248.91 0L248.91-5.58L250.41-5.58L250.41-13.33L248.91-13.33L248.91-18.90L258.23-18.90L258.23-16.25L258.23-16.25Q260.68-19.38 264.35-19.38L264.35-19.38L264.35-19.38Q266.42-19.38 267.73-18.41L267.73-18.41L267.73-18.41Q269.04-17.44 269.59-15.67L269.59-15.67L269.59-15.67Q270.81-17.44 272.39-18.39L272.39-18.39L272.39-18.39Q273.97-19.35 276.11-19.35L276.11-19.35L276.11-19.35Q278.94-19.35 280.35-17.58L280.35-17.58L280.35-17.58Q281.76-15.81 281.76-12.72L281.76-12.72L281.76-5.58ZM302.67-5.58L304.16-5.58L304.16 0L295.19 0L295.19-2.31L295.19-2.31Q294.44-1.22 293.10-0.37L293.10-0.37L293.10-0.37Q291.75 0.48 289.82 0.48L289.82 0.48L289.82 0.48Q287.27 0.48 285.80-0.88L285.80-0.88L285.80-0.88Q284.34-2.24 284.34-4.73L284.34-4.73L284.34-4.73Q284.34-11.15 295.26-11.32L295.26-11.32L295.26-11.32Q295.15-12.48 294.37-12.90L294.37-12.90L294.37-12.90Q293.59-13.33 291.72-13.33L291.72-13.33L291.72-13.33Q290.19-13.33 288.44-13.01L288.44-13.01L288.44-13.01Q286.69-12.68 285.23-12.14L285.23-12.14L285.23-18.39L285.23-18.39Q287.03-18.84 289.14-19.11L289.14-19.11L289.14-19.11Q291.24-19.38 293.25-19.38L293.25-19.38L293.25-19.38Q298.32-19.38 300.49-17.54L300.49-17.54L300.49-17.54Q302.67-15.71 302.67-11.87L302.67-11.87L302.67-5.58ZM295.19-7.75L295.19-7.96L295.19-7.96Q293.66-7.96 292.83-7.55L292.83-7.55L292.83-7.55Q291.99-7.14 291.99-6.19L291.99-6.19L291.99-6.19Q291.99-5.61 292.35-5.25L292.35-5.25L292.35-5.25Q292.71-4.90 293.35-4.90L293.35-4.90L293.35-4.90Q294.24-4.90 294.71-5.64L294.71-5.64L294.71-5.64Q295.19-6.39 295.19-7.75L295.19-7.75ZM315.42 0.48L315.42 0.48Q310.56 0.48 307.84-2.06L307.84-2.06L307.84-2.06Q305.12-4.59 305.12-9.45L305.12-9.45L305.12-9.45Q305.12-14.31 307.84-16.85L307.84-16.85L307.84-16.85Q310.56-19.38 315.38-19.38L315.38-19.38L315.38-19.38Q317.73-19.38 319.87-18.73L319.87-18.73L319.87-18.73Q322.01-18.09 323.20-17.27L323.20-17.27L323.20-10.54L317.36-10.54L317.36-11.15L317.36-11.15Q317.36-12.27 316.88-12.80L316.88-12.80L316.88-12.80Q316.40-13.33 315.38-13.33L315.38-13.33L315.38-13.33Q313.41-13.33 313.41-11.15L313.41-11.15L313.41-8.23L313.41-8.23Q313.41-5.58 316.44-5.58L316.44-5.58L316.44-5.58Q319.26-5.58 323.00-6.19L323.00-6.19L323.00-0.85L323.00-0.85Q321.84-0.34 319.75 0.07L319.75 0.07L319.75 0.07Q317.66 0.48 315.42 0.48L315.42 0.48ZM345.44-5.58L346.94-5.58L346.94 0L336.19 0L336.19-5.58L337.62-5.58L337.62-11.15L337.62-11.15Q337.62-12.27 337.14-12.80L337.14-12.80L337.14-12.80Q336.67-13.33 335.72-13.33L335.72-13.33L335.72-13.33Q333.68-13.33 333.68-11.15L333.68-11.15L333.68-5.58L335.10-5.58L335.10 0L324.36 0L324.36-5.58L325.86-5.58L325.86-20.88L324.36-20.88L324.36-26.45L333.68-26.45L333.68-16.25L333.68-16.25Q334.93-17.82 336.40-18.60L336.40-18.60L336.40-18.60Q337.86-19.38 339.80-19.38L339.80-19.38L339.80-19.38Q342.62-19.38 344.03-17.61L344.03-17.61L344.03-17.61Q345.44-15.84 345.44-12.75L345.44-12.75L345.44-5.58ZM356.59-20.77L349.66-20.77L349.66-26.45L356.59-26.45L356.59-20.77ZM358.84 0L348.02 0L348.02-5.58L349.52-5.58L349.52-13.33L348.02-13.33L348.02-18.90L357.34-18.90L357.34-5.58L358.84-5.58L358.84 0ZM380.87-5.58L382.36-5.58L382.36 0L371.62 0L371.62-5.58L373.05-5.58L373.05-11.15L373.05-11.15Q373.05-12.27 372.57-12.80L372.57-12.80L372.57-12.80Q372.10-13.33 371.14-13.33L371.14-13.33L371.14-13.33Q369.10-13.33 369.10-11.15L369.10-11.15L369.10-5.58L370.53-5.58L370.53 0L359.79 0L359.79-5.58L361.28-5.58L361.28-13.33L359.79-13.33L359.79-18.90L369.10-18.90L369.10-16.25L369.10-16.25Q371.55-19.38 375.22-19.38L375.22-19.38L375.22-19.38Q378.05-19.38 379.46-17.61L379.46-17.61L379.46-17.61Q380.87-15.84 380.87-12.75L380.87-12.75L380.87-5.58ZM393.58 0.48L393.58 0.48Q388.76 0.48 386.04-2.06L386.04-2.06L386.04-2.06Q383.32-4.59 383.32-9.45L383.32-9.45L383.32-9.45Q383.32-14.31 386.04-16.85L386.04-16.85L386.04-16.85Q388.76-19.38 393.58-19.38L393.58-19.38L393.58-19.38Q398.38-19.38 400.50-16.88L400.50-16.88L400.50-16.88Q402.63-14.38 402.63-10.68L402.63-10.68L402.63-8.23L391.61-8.23L391.61-8.02L391.61-8.02Q391.61-6.77 392.36-6.17L392.36-6.17L392.36-6.17Q393.11-5.58 394.84-5.58L394.84-5.58L394.84-5.58Q396.92-5.58 398.79-5.88L398.79-5.88L398.79-5.88Q400.66-6.19 402.05-6.66L402.05-6.66L402.05-1.22L402.05-1.22Q400.86-0.58 398.57-0.05L398.57-0.05L398.57-0.05Q396.27 0.48 393.58 0.48L393.58 0.48ZM391.61-11.97L395.56-11.97L395.56-12.38L395.56-12.38Q395.56-13.53 395.06-14.04L395.06-14.04L395.06-14.04Q394.57-14.55 393.58-14.55L393.58-14.55L393.58-14.55Q392.60-14.55 392.11-14.03L392.11-14.03L392.11-14.03Q391.61-13.50 391.61-12.38L391.61-12.38L391.61-11.97ZM422.25 0.48L422.25 0.48Q418.64 0.48 416.82-1.28L416.82-1.28L416.82-1.28Q415.00-3.03 415.00-7.17L415.00-7.17L415.00-13.33L413.51-13.33L413.51-18.90L413.51-18.90Q414.80-18.90 415.45-19.57L415.45-19.57L415.45-19.57Q416.09-20.23 416.09-21.39L416.09-21.39L416.09-22.92L423.30-22.92L423.30-18.90L427.89-18.90L427.89-13.33L423.30-13.33L423.30-7.75L423.30-7.75Q423.30-6.63 423.79-6.10L423.79-6.10L423.79-6.10Q424.29-5.58 425.27-5.58L425.27-5.58L425.27-5.58Q426.56-5.58 428.09-5.88L428.09-5.88L428.09-0.54L428.09-0.54Q427.14-0.17 425.53 0.15L425.53 0.15L425.53 0.15Q423.91 0.48 422.25 0.48L422.25 0.48ZM450.26-5.58L451.76-5.58L451.76 0L441.01 0L441.01-5.58L442.44-5.58L442.44-11.15L442.44-11.15Q442.44-12.27 441.97-12.80L441.97-12.80L441.97-12.80Q441.49-13.33 440.54-13.33L440.54-13.33L440.54-13.33Q438.50-13.33 438.50-11.15L438.50-11.15L438.50-5.58L439.93-5.58L439.93 0L429.18 0L429.18-5.58L430.68-5.58L430.68-20.88L429.18-20.88L429.18-26.45L438.50-26.45L438.50-16.25L438.50-16.25Q439.76-17.82 441.22-18.60L441.22-18.60L441.22-18.60Q442.68-19.38 444.62-19.38L444.62-19.38L444.62-19.38Q447.44-19.38 448.85-17.61L448.85-17.61L448.85-17.61Q450.26-15.84 450.26-12.75L450.26-12.75L450.26-5.58ZM471.17-5.58L472.67-5.58L472.67 0L463.69 0L463.69-2.31L463.69-2.31Q462.94-1.22 461.60-0.37L461.60-0.37L461.60-0.37Q460.26 0.48 458.32 0.48L458.32 0.48L458.32 0.48Q455.77 0.48 454.31-0.88L454.31-0.88L454.31-0.88Q452.85-2.24 452.85-4.73L452.85-4.73L452.85-4.73Q452.85-11.15 463.76-11.32L463.76-11.32L463.76-11.32Q463.66-12.48 462.88-12.90L462.88-12.90L462.88-12.90Q462.09-13.33 460.22-13.33L460.22-13.33L460.22-13.33Q458.69-13.33 456.94-13.01L456.94-13.01L456.94-13.01Q455.19-12.68 453.73-12.14L453.73-12.14L453.73-18.39L453.73-18.39Q455.53-18.84 457.64-19.11L457.64-19.11L457.64-19.11Q459.75-19.38 461.75-19.38L461.75-19.38L461.75-19.38Q466.82-19.38 469.00-17.54L469.00-17.54L469.00-17.54Q471.17-15.71 471.17-11.87L471.17-11.87L471.17-5.58ZM463.69-7.75L463.69-7.96L463.69-7.96Q462.16-7.96 461.33-7.55L461.33-7.55L461.33-7.55Q460.50-7.14 460.50-6.19L460.50-6.19L460.50-6.19Q460.50-5.61 460.85-5.25L460.85-5.25L460.85-5.25Q461.21-4.90 461.86-4.90L461.86-4.90L461.86-4.90Q462.74-4.90 463.22-5.64L463.22-5.64L463.22-5.64Q463.69-6.39 463.69-7.75L463.69-7.75ZM482.15 0.48L482.15 0.48Q478.55 0.48 476.73-1.28L476.73-1.28L476.73-1.28Q474.91-3.03 474.91-7.17L474.91-7.17L474.91-13.33L473.42-13.33L473.42-18.90L473.42-18.90Q474.71-18.90 475.35-19.57L475.35-19.57L475.35-19.57Q476.00-20.23 476.00-21.39L476.00-21.39L476.00-22.92L483.21-22.92L483.21-18.90L487.80-18.90L487.80-13.33L483.21-13.33L483.21-7.75L483.21-7.75Q483.21-6.63 483.70-6.10L483.70-6.10L483.70-6.10Q484.19-5.58 485.18-5.58L485.18-5.58L485.18-5.58Q486.47-5.58 488.00-5.88L488.00-5.88L488.00-0.54L488.00-0.54Q487.05-0.17 485.44 0.15L485.44 0.15L485.44 0.15Q483.82 0.48 482.15 0.48L482.15 0.48ZM509.46 0.48L509.46 0.48Q504.59 0.48 501.87-2.06L501.87-2.06L501.87-2.06Q499.15-4.59 499.15-9.45L499.15-9.45L499.15-9.45Q499.15-14.31 501.87-16.85L501.87-16.85L501.87-16.85Q504.59-19.38 509.42-19.38L509.42-19.38L509.42-19.38Q511.77-19.38 513.91-18.73L513.91-18.73L513.91-18.73Q516.05-18.09 517.24-17.27L517.24-17.27L517.24-10.54L511.39-10.54L511.39-11.15L511.39-11.15Q511.39-12.27 510.92-12.80L510.92-12.80L510.92-12.80Q510.44-13.33 509.42-13.33L509.42-13.33L509.42-13.33Q507.45-13.33 507.45-11.15L507.45-11.15L507.45-8.23L507.45-8.23Q507.45-5.58 510.48-5.58L510.48-5.58L510.48-5.58Q513.30-5.58 517.04-6.19L517.04-6.19L517.04-0.85L517.04-0.85Q515.88-0.34 513.79 0.07L513.79 0.07L513.79 0.07Q511.70 0.48 509.46 0.48L509.46 0.48ZM528.53 0.48L528.53 0.48Q523.70 0.48 520.98-2.06L520.98-2.06L520.98-2.06Q518.26-4.59 518.26-9.45L518.26-9.45L518.26-9.45Q518.26-14.31 520.98-16.85L520.98-16.85L520.98-16.85Q523.70-19.38 528.53-19.38L528.53-19.38L528.53-19.38Q533.43-19.38 536.11-16.81L536.11-16.81L536.11-16.81Q538.80-14.25 538.80-9.45L538.80-9.45L538.80-9.45Q538.80-4.59 536.08-2.06L536.08-2.06L536.08-2.06Q533.36 0.48 528.53 0.48L528.53 0.48ZM528.53-5.58L528.53-5.58Q529.52-5.58 530.01-6.10L530.01-6.10L530.01-6.10Q530.50-6.63 530.50-7.75L530.50-7.75L530.50-11.15L530.50-11.15Q530.50-12.27 530.01-12.80L530.01-12.80L530.01-12.80Q529.52-13.33 528.53-13.33L528.53-13.33L528.53-13.33Q527.54-13.33 527.05-12.80L527.05-12.80L527.05-12.80Q526.56-12.27 526.56-11.15L526.56-11.15L526.56-7.75L526.56-7.75Q526.56-6.63 527.05-6.10L527.05-6.10L527.05-6.10Q527.54-5.58 528.53-5.58L528.53-5.58ZM560.97-5.58L562.46-5.58L562.46 0L551.72 0L551.72-5.58L553.15-5.58L553.15-11.15L553.15-11.15Q553.15-12.27 552.67-12.80L552.67-12.80L552.67-12.80Q552.19-13.33 551.24-13.33L551.24-13.33L551.24-13.33Q549.20-13.33 549.20-11.15L549.20-11.15L549.20-5.58L550.63-5.58L550.63 0L539.89 0L539.89-5.58L541.38-5.58L541.38-13.33L539.89-13.33L539.89-18.90L549.20-18.90L549.20-16.25L549.20-16.25Q551.65-19.38 555.32-19.38L555.32-19.38L555.32-19.38Q558.14-19.38 559.56-17.61L559.56-17.61L559.56-17.61Q560.97-15.84 560.97-12.75L560.97-12.75L560.97-5.58ZM578.10 0L567.97 0L563.69-13.33L562.26-13.33L562.26-18.90L572.76-18.90L572.76-13.33L571.34-13.33L573.14-6.60L573.48-6.60L575.28-13.33L573.85-13.33L573.85-18.90L583.71-18.90L583.71-13.33L582.28-13.33L578.10 0ZM594.80 0.48L594.80 0.48Q589.97 0.48 587.25-2.06L587.25-2.06L587.25-2.06Q584.53-4.59 584.53-9.45L584.53-9.45L584.53-9.45Q584.53-14.31 587.25-16.85L587.25-16.85L587.25-16.85Q589.97-19.38 594.80-19.38L594.80-19.38L594.80-19.38Q599.59-19.38 601.72-16.88L601.72-16.88L601.72-16.88Q603.84-14.38 603.84-10.68L603.84-10.68L603.84-8.23L592.82-8.23L592.82-8.02L592.82-8.02Q592.82-6.77 593.57-6.17L593.57-6.17L593.57-6.17Q594.32-5.58 596.05-5.58L596.05-5.58L596.05-5.58Q598.13-5.58 600.00-5.88L600.00-5.88L600.00-5.88Q601.87-6.19 603.26-6.66L603.26-6.66L603.26-1.22L603.26-1.22Q602.07-0.58 599.78-0.05L599.78-0.05L599.78-0.05Q597.48 0.48 594.80 0.48L594.80 0.48ZM592.82-11.97L596.77-11.97L596.77-12.38L596.77-12.38Q596.77-13.53 596.28-14.04L596.28-14.04L596.28-14.04Q595.78-14.55 594.80-14.55L594.80-14.55L594.80-14.55Q593.81-14.55 593.32-14.03L593.32-14.03L593.32-14.03Q592.82-13.50 592.82-12.38L592.82-12.38L592.82-11.97ZM619.38-19.38L619.38-19.38Q620.06-19.38 620.67-19.24L620.67-19.24L620.67-19.24Q621.28-19.11 621.69-18.90L621.69-18.90L621.69-12.41L621.69-12.41Q620.30-12.99 618.70-12.99L618.70-12.99L618.70-12.99Q616.56-12.99 615.40-11.87L615.40-11.87L615.40-11.87Q614.24-10.74 614.24-8.53L614.24-8.53L614.24-5.58L617.30-5.58L617.30 0L604.93 0L604.93-5.58L606.42-5.58L606.42-13.33L604.93-13.33L604.93-18.90L614.24-18.90L614.24-16.42L614.24-16.42Q615.20-17.85 616.42-18.62L616.42-18.62L616.42-18.62Q617.64-19.38 619.38-19.38L619.38-19.38ZM631.18 0.48L631.18 0.48Q627.57 0.48 625.75-1.28L625.75-1.28L625.75-1.28Q623.93-3.03 623.93-7.17L623.93-7.17L623.93-13.33L622.44-13.33L622.44-18.90L622.44-18.90Q623.73-18.90 624.38-19.57L624.38-19.57L624.38-19.57Q625.02-20.23 625.02-21.39L625.02-21.39L625.02-22.92L632.23-22.92L632.23-18.90L636.82-18.90L636.82-13.33L632.23-13.33L632.23-7.75L632.23-7.75Q632.23-6.63 632.72-6.10L632.72-6.10L632.72-6.10Q633.22-5.58 634.20-5.58L634.20-5.58L634.20-5.58Q635.49-5.58 637.02-5.88L637.02-5.88L637.02-0.54L637.02-0.54Q636.07-0.17 634.46 0.15L634.46 0.15L634.46 0.15Q632.84 0.48 631.18 0.48L631.18 0.48ZM646.37 0.48L646.37 0.48Q642.09 0.48 638.11-0.88L638.11-0.88L638.11-5.92L643.62-5.92L643.62-5.58L643.62-5.58Q643.62-3.94 645.69-3.94L645.69-3.94L645.69-3.94Q647.53-3.94 647.53-5.20L647.53-5.20L647.53-5.20Q647.53-5.88 647.00-6.22L647.00-6.22L647.00-6.22Q646.48-6.56 645.15-6.80L645.15-6.80L643.45-7.11L643.45-7.11Q638.11-8.06 638.11-13.16L638.11-13.16L638.11-13.16Q638.11-16.12 640.36-17.75L640.36-17.75L640.36-17.75Q642.60-19.38 646.41-19.38L646.41-19.38L646.41-19.38Q650.66-19.38 653.58-17.95L653.58-17.95L653.58-13.23L648.41-13.23L648.41-13.57L648.41-13.57Q648.41-14.25 647.96-14.60L647.96-14.60L647.96-14.60Q647.50-14.96 646.61-14.96L646.61-14.96L646.61-14.96Q644.91-14.96 644.91-13.87L644.91-13.87L644.91-13.87Q644.91-13.29 645.39-12.99L645.39-12.99L645.39-12.99Q645.86-12.68 647.12-12.41L647.12-12.41L649.06-12.04L649.06-12.04Q652.09-11.46 653.38-9.89L653.38-9.89L653.38-9.89Q654.67-8.33 654.67-5.88L654.67-5.88L654.67-5.88Q654.67-2.79 652.51-1.16L652.51-1.16L652.51-1.16Q650.35 0.48 646.37 0.48L646.37 0.48ZM676.12 0.48L676.12 0.48Q671.26 0.48 668.54-2.06L668.54-2.06L668.54-2.06Q665.82-4.59 665.82-9.45L665.82-9.45L665.82-9.45Q665.82-14.31 668.54-16.85L668.54-16.85L668.54-16.85Q671.26-19.38 676.09-19.38L676.09-19.38L676.09-19.38Q678.44-19.38 680.58-18.73L680.58-18.73L680.58-18.73Q682.72-18.09 683.91-17.27L683.91-17.27L683.91-10.54L678.06-10.54L678.06-11.15L678.06-11.15Q678.06-12.27 677.59-12.80L677.59-12.80L677.59-12.80Q677.11-13.33 676.09-13.33L676.09-13.33L676.09-13.33Q674.12-13.33 674.12-11.15L674.12-11.15L674.12-8.23L674.12-8.23Q674.12-5.58 677.14-5.58L677.14-5.58L677.14-5.58Q679.97-5.58 683.71-6.19L683.71-6.19L683.71-0.85L683.71-0.85Q682.55-0.34 680.46 0.07L680.46 0.07L680.46 0.07Q678.37 0.48 676.12 0.48L676.12 0.48ZM695.20 0.48L695.20 0.48Q690.37 0.48 687.65-2.06L687.65-2.06L687.65-2.06Q684.93-4.59 684.93-9.45L684.93-9.45L684.93-9.45Q684.93-14.31 687.65-16.85L687.65-16.85L687.65-16.85Q690.37-19.38 695.20-19.38L695.20-19.38L695.20-19.38Q700.09-19.38 702.78-16.81L702.78-16.81L702.78-16.81Q705.47-14.25 705.47-9.45L705.47-9.45L705.47-9.45Q705.47-4.59 702.75-2.06L702.75-2.06L702.75-2.06Q700.03 0.48 695.20 0.48L695.20 0.48ZM695.20-5.58L695.20-5.58Q696.18-5.58 696.68-6.10L696.68-6.10L696.68-6.10Q697.17-6.63 697.17-7.75L697.17-7.75L697.17-11.15L697.17-11.15Q697.17-12.27 696.68-12.80L696.68-12.80L696.68-12.80Q696.18-13.33 695.20-13.33L695.20-13.33L695.20-13.33Q694.21-13.33 693.72-12.80L693.72-12.80L693.72-12.80Q693.23-12.27 693.23-11.15L693.23-11.15L693.23-7.75L693.23-7.75Q693.23-6.63 693.72-6.10L693.72-6.10L693.72-6.10Q694.21-5.58 695.20-5.58L695.20-5.58ZM706.55 0L706.55-5.58L708.05-5.58L708.05-13.33L706.55-13.33L706.55-18.90L708.12-18.90L708.12-18.90Q708.12-23.05 710.14-24.99L710.14-24.99L710.14-24.99Q712.16-26.93 716.04-26.93L716.04-26.93L716.04-26.93Q717.91-26.93 719.39-26.66L719.39-26.66L719.39-26.66Q720.87-26.38 721.55-26.04L721.55-26.04L721.55-20.71L721.55-20.71Q719.75-20.88 718.22-20.88L718.22-20.88L718.22-20.88Q716.89-20.88 716.38-20.43L716.38-20.43L716.38-20.43Q715.87-19.99 715.87-18.90L715.87-18.90L718.52-18.90L718.52-13.33L715.87-13.33L715.87-5.58L718.52-5.58L718.52 0L706.55 0ZM719.61 0L719.61-5.58L721.11-5.58L721.11-13.33L719.61-13.33L719.61-18.90L721.17-18.90L721.17-18.90Q721.17-23.05 723.20-24.99L723.20-24.99L723.20-24.99Q725.22-26.93 729.10-26.93L729.10-26.93L729.10-26.93Q730.97-26.93 732.45-26.66L732.45-26.66L732.45-26.66Q733.92-26.38 734.60-26.04L734.60-26.04L734.60-20.71L734.60-20.71Q732.80-20.88 731.27-20.88L731.27-20.88L731.27-20.88Q729.95-20.88 729.44-20.43L729.44-20.43L729.44-20.43Q728.93-19.99 728.93-18.90L728.93-18.90L731.58-18.90L731.58-13.33L728.93-13.33L728.93-5.58L731.58-5.58L731.58 0L719.61 0ZM742.80 0.48L742.80 0.48Q737.97 0.48 735.25-2.06L735.25-2.06L735.25-2.06Q732.53-4.59 732.53-9.45L732.53-9.45L732.53-9.45Q732.53-14.31 735.25-16.85L735.25-16.85L735.25-16.85Q737.97-19.38 742.80-19.38L742.80-19.38L742.80-19.38Q747.59-19.38 749.72-16.88L749.72-16.88L749.72-16.88Q751.84-14.38 751.84-10.68L751.84-10.68L751.84-8.23L740.83-8.23L740.83-8.02L740.83-8.02Q740.83-6.77 741.57-6.17L741.57-6.17L741.57-6.17Q742.32-5.58 744.06-5.58L744.06-5.58L744.06-5.58Q746.13-5.58 748.00-5.88L748.00-5.88L748.00-5.88Q749.87-6.19 751.26-6.66L751.26-6.66L751.26-1.22L751.26-1.22Q750.07-0.58 747.78-0.05L747.78-0.05L747.78-0.05Q745.48 0.48 742.80 0.48L742.80 0.48ZM740.83-11.97L744.77-11.97L744.77-12.38L744.77-12.38Q744.77-13.53 744.28-14.04L744.28-14.04L744.28-14.04Q743.78-14.55 742.80-14.55L742.80-14.55L742.80-14.55Q741.81-14.55 741.32-14.03L741.32-14.03L741.32-14.03Q740.83-13.50 740.83-12.38L740.83-12.38L740.83-11.97ZM762.99 0.48L762.99 0.48Q758.17 0.48 755.45-2.06L755.45-2.06L755.45-2.06Q752.73-4.59 752.73-9.45L752.73-9.45L752.73-9.45Q752.73-14.31 755.45-16.85L755.45-16.85L755.45-16.85Q758.17-19.38 762.99-19.38L762.99-19.38L762.99-19.38Q767.79-19.38 769.91-16.88L769.91-16.88L769.91-16.88Q772.04-14.38 772.04-10.68L772.04-10.68L772.04-8.23L761.02-8.23L761.02-8.02L761.02-8.02Q761.02-6.77 761.77-6.17L761.77-6.17L761.77-6.17Q762.52-5.58 764.25-5.58L764.25-5.58L764.25-5.58Q766.33-5.58 768.20-5.88L768.20-5.88L768.20-5.88Q770.07-6.19 771.46-6.66L771.46-6.66L771.46-1.22L771.46-1.22Q770.27-0.58 767.98-0.05L767.98-0.05L767.98-0.05Q765.68 0.48 762.99 0.48L762.99 0.48ZM761.02-11.97L764.97-11.97L764.97-12.38L764.97-12.38Q764.97-13.53 764.47-14.04L764.47-14.04L764.47-14.04Q763.98-14.55 762.99-14.55L762.99-14.55L762.99-14.55Q762.01-14.55 761.52-14.03L761.52-14.03L761.52-14.03Q761.02-13.50 761.02-12.38L761.02-12.38L761.02-11.97ZM791.83-20.77L784.89-20.77L784.89-26.45L791.83-26.45L791.83-20.77ZM794.07 0L783.26 0L783.26-5.58L784.75-5.58L784.75-13.33L783.26-13.33L783.26-18.90L792.57-18.90L792.57-5.58L794.07-5.58L794.07 0ZM816.10-5.58L817.60-5.58L817.60 0L806.85 0L806.85-5.58L808.28-5.58L808.28-11.15L808.28-11.15Q808.28-12.27 807.81-12.80L807.81-12.80L807.81-12.80Q807.33-13.33 806.38-13.33L806.38-13.33L806.38-13.33Q804.34-13.33 804.34-11.15L804.34-11.15L804.34-5.58L805.77-5.58L805.77 0L795.02 0L795.02-5.58L796.52-5.58L796.52-13.33L795.02-13.33L795.02-18.90L804.34-18.90L804.34-16.25L804.34-16.25Q806.79-19.38 810.46-19.38L810.46-19.38L810.46-19.38Q813.28-19.38 814.69-17.61L814.69-17.61L814.69-17.61Q816.10-15.84 816.10-12.75L816.10-12.75L816.10-5.58ZM827.08 0.48L827.08 0.48Q823.48 0.48 821.66-1.28L821.66-1.28L821.66-1.28Q819.84-3.03 819.84-7.17L819.84-7.17L819.84-13.33L818.35-13.33L818.35-18.90L818.35-18.90Q819.64-18.90 820.28-19.57L820.28-19.57L820.28-19.57Q820.93-20.23 820.93-21.39L820.93-21.39L820.93-22.92L828.14-22.92L828.14-18.90L832.73-18.90L832.73-13.33L828.14-13.33L828.14-7.75L828.14-7.75Q828.14-6.63 828.63-6.10L828.63-6.10L828.63-6.10Q829.12-5.58 830.11-5.58L830.11-5.58L830.11-5.58Q831.40-5.58 832.93-5.88L832.93-5.88L832.93-0.54L832.93-0.54Q831.98-0.17 830.37 0.15L830.37 0.15L830.37 0.15Q828.75 0.48 827.08 0.48L827.08 0.48ZM844.15 0.48L844.15 0.48Q839.32 0.48 836.60-2.06L836.60-2.06L836.60-2.06Q833.88-4.59 833.88-9.45L833.88-9.45L833.88-9.45Q833.88-14.31 836.60-16.85L836.60-16.85L836.60-16.85Q839.32-19.38 844.15-19.38L844.15-19.38L844.15-19.38Q849.05-19.38 851.73-16.81L851.73-16.81L851.73-16.81Q854.42-14.25 854.42-9.45L854.42-9.45L854.42-9.45Q854.42-4.59 851.70-2.06L851.70-2.06L851.70-2.06Q848.98 0.48 844.15 0.48L844.15 0.48ZM844.15-5.58L844.15-5.58Q845.14-5.58 845.63-6.10L845.63-6.10L845.63-6.10Q846.12-6.63 846.12-7.75L846.12-7.75L846.12-11.15L846.12-11.15Q846.12-12.27 845.63-12.80L845.63-12.80L845.63-12.80Q845.14-13.33 844.15-13.33L844.15-13.33L844.15-13.33Q843.17-13.33 842.67-12.80L842.67-12.80L842.67-12.80Q842.18-12.27 842.18-11.15L842.18-11.15L842.18-7.75L842.18-7.75Q842.18-6.63 842.67-6.10L842.67-6.10L842.67-6.10Q843.17-5.58 844.15-5.58L844.15-5.58ZM875.87 0.48L875.87 0.48Q871.01 0.48 868.29-2.06L868.29-2.06L868.29-2.06Q865.57-4.59 865.57-9.45L865.57-9.45L865.57-9.45Q865.57-14.31 868.29-16.85L868.29-16.85L868.29-16.85Q871.01-19.38 875.84-19.38L875.84-19.38L875.84-19.38Q878.19-19.38 880.33-18.73L880.33-18.73L880.33-18.73Q882.47-18.09 883.66-17.27L883.66-17.27L883.66-10.54L877.81-10.54L877.81-11.15L877.81-11.15Q877.81-12.27 877.34-12.80L877.34-12.80L877.34-12.80Q876.86-13.33 875.84-13.33L875.84-13.33L875.84-13.33Q873.87-13.33 873.87-11.15L873.87-11.15L873.87-8.23L873.87-8.23Q873.87-5.58 876.89-5.58L876.89-5.58L876.89-5.58Q879.72-5.58 883.46-6.19L883.46-6.19L883.46-0.85L883.46-0.85Q882.30-0.34 880.21 0.07L880.21 0.07L880.21 0.07Q878.12 0.48 875.87 0.48L875.87 0.48ZM894.95 0.48L894.95 0.48Q890.12 0.48 887.40-2.06L887.40-2.06L887.40-2.06Q884.68-4.59 884.68-9.45L884.68-9.45L884.68-9.45Q884.68-14.31 887.40-16.85L887.40-16.85L887.40-16.85Q890.12-19.38 894.95-19.38L894.95-19.38L894.95-19.38Q899.84-19.38 902.53-16.81L902.53-16.81L902.53-16.81Q905.22-14.25 905.22-9.45L905.22-9.45L905.22-9.45Q905.22-4.59 902.50-2.06L902.50-2.06L902.50-2.06Q899.78 0.48 894.95 0.48L894.95 0.48ZM894.95-5.58L894.95-5.58Q895.93-5.58 896.43-6.10L896.43-6.10L896.43-6.10Q896.92-6.63 896.92-7.75L896.92-7.75L896.92-11.15L896.92-11.15Q896.92-12.27 896.43-12.80L896.43-12.80L896.43-12.80Q895.93-13.33 894.95-13.33L894.95-13.33L894.95-13.33Q893.96-13.33 893.47-12.80L893.47-12.80L893.47-12.80Q892.98-12.27 892.98-11.15L892.98-11.15L892.98-7.75L892.98-7.75Q892.98-6.63 893.47-6.10L893.47-6.10L893.47-6.10Q893.96-5.58 894.95-5.58L894.95-5.58ZM913.00 0.48L913.00 0.48Q909.53 0.48 907.78-2.11L907.78-2.11L907.78-2.11Q906.03-4.69 906.03-9.45L906.03-9.45L906.03-9.45Q906.03-14.21 907.78-16.80L907.78-16.80L907.78-16.80Q909.53-19.38 913.00-19.38L913.00-19.38L913.00-19.38Q914.74-19.38 916.08-18.53L916.08-18.53L916.08-18.53Q917.42-17.68 918.27-16.59L918.27-16.59L918.27-20.88L916.27-20.88L916.27-26.45L926.09-26.45L926.09-5.58L927.59-5.58L927.59 0L918.27 0L918.27-2.31L918.27-2.31Q917.42-1.22 916.08-0.37L916.08-0.37L916.08-0.37Q914.74 0.48 913.00 0.48L913.00 0.48ZM916.30-5.58L916.30-5.58Q917.29-5.58 917.78-6.10L917.78-6.10L917.78-6.10Q918.27-6.63 918.27-7.75L918.27-7.75L918.27-11.15L918.27-11.15Q918.27-12.27 917.78-12.80L917.78-12.80L917.78-12.80Q917.29-13.33 916.30-13.33L916.30-13.33L916.30-13.33Q915.31-13.33 914.82-12.80L914.82-12.80L914.82-12.80Q914.33-12.27 914.33-11.15L914.33-11.15L914.33-7.75L914.33-7.75Q914.33-6.63 914.82-6.10L914.82-6.10L914.82-6.10Q915.31-5.58 916.30-5.58L916.30-5.58ZM938.81 0.48L938.81 0.48Q933.98 0.48 931.26-2.06L931.26-2.06L931.26-2.06Q928.54-4.59 928.54-9.45L928.54-9.45L928.54-9.45Q928.54-14.31 931.26-16.85L931.26-16.85L931.26-16.85Q933.98-19.38 938.81-19.38L938.81-19.38L938.81-19.38Q943.60-19.38 945.73-16.88L945.73-16.88L945.73-16.88Q947.85-14.38 947.85-10.68L947.85-10.68L947.85-8.23L936.84-8.23L936.84-8.02L936.84-8.02Q936.84-6.77 937.58-6.17L937.58-6.17L937.58-6.17Q938.33-5.58 940.07-5.58L940.07-5.58L940.07-5.58Q942.14-5.58 944.01-5.88L944.01-5.88L944.01-5.88Q945.88-6.19 947.27-6.66L947.27-6.66L947.27-1.22L947.27-1.22Q946.08-0.58 943.79-0.05L943.79-0.05L943.79-0.05Q941.49 0.48 938.81 0.48L938.81 0.48ZM936.84-11.97L940.78-11.97L940.78-12.38L940.78-12.38Q940.78-13.53 940.29-14.04L940.29-14.04L940.29-14.04Q939.79-14.55 938.81-14.55L938.81-14.55L938.81-14.55Q937.82-14.55 937.33-14.03L937.33-14.03L937.33-14.03Q936.84-13.50 936.84-12.38L936.84-12.38L936.84-11.97ZM957.51-7.45L950.50-7.45L948.94-24.75L948.94-26.45L959.11-26.45L959.11-24.75L957.51-7.45ZM957.85 0L950.16 0L950.16-5.58L957.85-5.58L957.85 0Z" fill="url(#editing-glowing-gradient)"></path></g></g><style>text {
  font-size: 64px;
  font-family: Arial Black;
  dominant-baseline: central;
  text-anchor: middle;
}</style></svg>