<svg width="1057.4249023437499px" height="136.53505859375px" xmlns="http://www.w3.org/2000/svg" viewBox="-278.71245117187493 6.732470703125003 1057.4249023437499 136.53505859375" style="background: rgb(147, 219, 233);" preserveAspectRatio="xMidYMid"><defs><filter id="editing-crystal" x="-100%" y="-100%" width="300%" height="300%"><feMorphology operator="dilate" radius="2" in="SourceGraphic" result="border"></feMorphology><feFlood flood-color="#3b4368" result="black"></feFlood><feMorphology operator="dilate" radius="2" in="SourceGraphic" result="erode"></feMorphology><feGaussianBlur in="erode" stdDeviation="4" result="blur"></feGaussianBlur><feOffset in="blur" dx="2" dy="2" result="offset"></feOffset><feComposite operator="atop" in="offset" in2="black" result="merge"></feComposite><feComposite operator="in" in="merge" in2="SourceGraphic" result="inner-shadow"></feComposite><feGaussianBlur in="SourceGraphic" stdDeviation="2.5" result="shadow1"></feGaussianBlur><feOffset in="shadow1" dx="0" dy="5" result="shadow"></feOffset><feSpecularLighting in="SourceGraphic" result="specular" surfaceScale="1.5" specularConstant="100" specularExponent="10" lighting-color="#191d3a"><fePointLight x="250" y="-300" z="-400"></fePointLight></feSpecularLighting><feGaussianBlur in="specular" stdDeviation="1" result="specular2"></feGaussianBlur><feComposite operator="in" in="specular2" in2="SourceAlpha" result="specular3"></feComposite><feMerge result="merge"><feMergeNode in="border"></feMergeNode><feMergeNode in="inner-shadow"></feMergeNode><feMergeNode in="specular3"></feMergeNode></feMerge><feComponentTransfer in="merge" result="final"><feFuncA type="linear" slope="0.9" intercept="0"></feFuncA></feComponentTransfer><feMerge><feMergeNode in="shadow"></feMergeNode><feMergeNode in="final"></feMergeNode></feMerge></filter></defs><g filter="url(#editing-crystal)"><g transform="translate(-131.8599967956543, 117.74312591552734)"><path d="M54.36-64.42L63.56-64.42L63.56 0L54.36 0L54.36-27.58L17.47-27.58L17.47 0L8.27 0L8.27-64.42L17.47-64.42L17.47-36.79L54.36-36.79L54.36-64.42ZM79.65-47.84L88.50-47.84L88.50 0L79.65 0L79.65-47.84ZM79.20-57.05L79.20-66.26L88.95-66.26L88.95-57.05L79.20-57.05ZM117.11 0L110.19 13.70L103.68 13.70L110.28 0L103.68 0L103.68-13.43L117.11-13.43L117.11 0ZM160.33-64.42L169.54-64.42L169.54 0L160.33 0L160.33-64.42ZM197.12-54.67L194.20-34.23L188.09-34.23L185.17-54.67L185.17-64.42L197.12-64.42L197.12-54.67ZM269.98-38.99L249.77-38.99L249.77 0L240.92 0L240.92-38.99L220.66-38.99L220.66 0L211.85 0L211.85-47.84L220.66-47.84L220.66-39.40L220.66-39.40Q220.75-41.15 221.46-42.70L221.46-42.70L221.46-42.70Q222.18-44.25 223.37-45.39L223.37-45.39L223.37-45.39Q224.56-46.54 226.14-47.19L226.14-47.19L226.14-47.19Q227.71-47.84 229.51-47.84L229.51-47.84L240.92-47.84L240.92-47.84Q242.67-47.84 244.24-47.19L244.24-47.19L244.24-47.19Q245.81-46.54 247.03-45.39L247.03-45.39L247.03-45.39Q248.24-44.25 248.98-42.70L248.98-42.70L248.98-42.70Q249.72-41.15 249.77-39.40L249.77-39.40L249.77-39.40Q249.86-41.15 250.55-42.70L250.55-42.70L250.55-42.70Q251.25-44.25 252.44-45.39L252.44-45.39L252.44-45.39Q253.63-46.54 255.20-47.19L255.20-47.19L255.20-47.19Q256.77-47.84 258.57-47.84L258.57-47.84L269.98-47.84L269.98-47.84Q271.82-47.84 273.44-47.15L273.44-47.15L273.44-47.15Q275.06-46.45 276.25-45.26L276.25-45.26L276.25-45.26Q277.44-44.07 278.13-42.45L278.13-42.45L278.13-42.45Q278.83-40.83 278.83-38.99L278.83-38.99L278.83 0L269.98 0L269.98-38.99ZM322.04-9.21L322.04-55.21L322.04-55.21Q322.04-57.10 322.76-58.78L322.76-58.78L322.76-58.78Q323.48-60.46 324.74-61.70L324.74-61.70L324.74-61.70Q326.00-62.94 327.68-63.68L327.68-63.68L327.68-63.68Q329.37-64.42 331.25-64.42L331.25-64.42L366.20-64.42L366.20-64.42Q368.09-64.42 369.77-63.68L369.77-63.68L369.77-63.68Q371.46-62.94 372.72-61.70L372.72-61.70L372.72-61.70Q373.97-60.46 374.69-58.78L374.69-58.78L374.69-58.78Q375.41-57.10 375.41-55.21L375.41-55.21L375.41-46.90L366.20-46.90L366.20-55.21L331.25-55.21L331.25-9.21L366.20-9.21L366.20-17.47L375.41-17.47L375.41-9.21L375.41-9.21Q375.41-7.32 374.69-5.64L374.69-5.64L374.69-5.64Q373.97-3.95 372.72-2.70L372.72-2.70L372.72-2.70Q371.46-1.44 369.77-0.72L369.77-0.72L369.77-0.72Q368.09 0 366.20 0L366.20 0L331.25 0L331.25 0Q329.37 0 327.68-0.72L327.68-0.72L327.68-0.72Q326.00-1.44 324.74-2.70L324.74-2.70L324.74-2.70Q323.48-3.95 322.76-5.64L322.76-5.64L322.76-5.64Q322.04-7.32 322.04-9.21L322.04-9.21ZM431.56-38.99L431.56 0L422.71 0L422.71-38.99L398.05-38.99L398.05 0L389.25 0L389.25-66.26L398.05-66.26L398.05-39.40L398.05-39.40Q398.14-41.15 398.86-42.70L398.86-42.70L398.86-42.70Q399.58-44.25 400.77-45.39L400.77-45.39L400.77-45.39Q401.96-46.54 403.53-47.19L403.53-47.19L403.53-47.19Q405.11-47.84 406.90-47.84L406.90-47.84L422.71-47.84L422.71-47.84Q424.56-47.84 426.17-47.15L426.17-47.15L426.17-47.15Q427.79-46.45 428.98-45.26L428.98-45.26L428.98-45.26Q430.17-44.07 430.87-42.45L430.87-42.45L430.87-42.45Q431.56-40.83 431.56-38.99L431.56-38.99ZM446.75-47.84L455.60-47.84L455.60 0L446.75 0L446.75-47.84ZM446.30-57.05L446.30-66.26L456.05-66.26L456.05-57.05L446.30-57.05ZM513.10-38.99L513.10 0L504.25 0L504.25-38.99L479.59-38.99L479.59 0L470.78 0L470.78-47.84L479.59-47.84L479.59-39.40L479.59-39.40Q479.68-41.15 480.39-42.70L480.39-42.70L480.39-42.70Q481.11-44.25 482.30-45.39L482.30-45.39L482.30-45.39Q483.49-46.54 485.07-47.19L485.07-47.19L485.07-47.19Q486.64-47.84 488.44-47.84L488.44-47.84L504.25-47.84L504.25-47.84Q506.09-47.84 507.71-47.15L507.71-47.15L507.71-47.15Q509.32-46.45 510.51-45.26L510.51-45.26L510.51-45.26Q511.71-44.07 512.40-42.45L512.40-42.45L512.40-42.45Q513.10-40.83 513.10-38.99L513.10-38.99ZM585.96-38.99L565.75-38.99L565.75 0L556.90 0L556.90-38.99L536.64-38.99L536.64 0L527.83 0L527.83-47.84L536.64-47.84L536.64-39.40L536.64-39.40Q536.73-41.15 537.45-42.70L537.45-42.70L537.45-42.70Q538.16-44.25 539.35-45.39L539.35-45.39L539.35-45.39Q540.54-46.54 542.12-47.19L542.12-47.19L542.12-47.19Q543.69-47.84 545.49-47.84L545.49-47.84L556.90-47.84L556.90-47.84Q558.65-47.84 560.22-47.19L560.22-47.19L560.22-47.19Q561.79-46.54 563.01-45.39L563.01-45.39L563.01-45.39Q564.22-44.25 564.96-42.70L564.96-42.70L564.96-42.70Q565.70-41.15 565.75-39.40L565.75-39.40L565.75-39.40Q565.84-41.15 566.53-42.70L566.53-42.70L566.53-42.70Q567.23-44.25 568.42-45.39L568.42-45.39L568.42-45.39Q569.61-46.54 571.18-47.19L571.18-47.19L571.18-47.19Q572.75-47.84 574.55-47.84L574.55-47.84L585.96-47.84L585.96-47.84Q587.80-47.84 589.42-47.15L589.42-47.15L589.42-47.15Q591.04-46.45 592.23-45.26L592.23-45.26L592.23-45.26Q593.42-44.07 594.11-42.45L594.11-42.45L594.11-42.45Q594.81-40.83 594.81-38.99L594.81-38.99L594.81 0L585.96 0L585.96-38.99ZM609.54-8.85L609.54-20.89L609.54-20.89Q609.54-22.73 610.24-24.33L610.24-24.33L610.24-24.33Q610.94-25.92 612.13-27.13L612.13-27.13L612.13-27.13Q613.32-28.35 614.94-29.04L614.94-29.04L614.94-29.04Q616.55-29.74 618.35-29.74L618.35-29.74L641.17-29.74L641.17-38.99L612.29-38.99L612.29-47.84L641.17-47.84L641.17-47.84Q643.01-47.84 644.63-47.15L644.63-47.15L644.63-47.15Q646.25-46.45 647.44-45.26L647.44-45.26L647.44-45.26Q648.63-44.07 649.32-42.45L649.32-42.45L649.32-42.45Q650.02-40.83 650.02-38.99L650.02-38.99L650.02 0L641.17 0L641.17-8.09L641.17-8.09Q641.04-6.42 640.27-4.94L640.27-4.94L640.27-4.94Q639.51-3.46 638.32-2.36L638.32-2.36L638.32-2.36Q637.13-1.26 635.60-0.63L635.60-0.63L635.60-0.63Q634.07 0 632.37 0L632.37 0L618.35 0L618.35 0Q616.55 0 614.94-0.70L614.94-0.70L614.94-0.70Q613.32-1.39 612.13-2.58L612.13-2.58L612.13-2.58Q610.94-3.77 610.24-5.39L610.24-5.39L610.24-5.39Q609.54-7.01 609.54-8.85L609.54-8.85ZM618.35-20.89L618.35-8.85L641.17-8.85L641.17-20.89L618.35-20.89ZM676.79 19.32L667.99 19.32L678.01-4.31L659.23-47.84L668.53-47.84L682.50-14.91L696.47-47.84L705.77-47.84L676.79 19.32ZM714.98-8.85L714.98-20.89L714.98-20.89Q714.98-22.73 715.67-24.33L715.67-24.33L715.67-24.33Q716.37-25.92 717.56-27.13L717.56-27.13L717.56-27.13Q718.75-28.35 720.37-29.04L720.37-29.04L720.37-29.04Q721.98-29.74 723.78-29.74L723.78-29.74L746.60-29.74L746.60-38.99L717.72-38.99L717.72-47.84L746.60-47.84L746.60-47.84Q748.44-47.84 750.06-47.15L750.06-47.15L750.06-47.15Q751.68-46.45 752.87-45.26L752.87-45.26L752.87-45.26Q754.06-44.07 754.75-42.45L754.75-42.45L754.75-42.45Q755.45-40.83 755.45-38.99L755.45-38.99L755.45 0L746.60 0L746.60-8.09L746.60-8.09Q746.47-6.42 745.70-4.94L745.70-4.94L745.70-4.94Q744.94-3.46 743.75-2.36L743.75-2.36L743.75-2.36Q742.56-1.26 741.03-0.63L741.03-0.63L741.03-0.63Q739.50 0 737.80 0L737.80 0L723.78 0L723.78 0Q721.98 0 720.37-0.70L720.37-0.70L720.37-0.70Q718.75-1.39 717.56-2.58L717.56-2.58L717.56-2.58Q716.37-3.77 715.67-5.39L715.67-5.39L715.67-5.39Q714.98-7.01 714.98-8.85L714.98-8.85ZM723.78-20.89L723.78-8.85L746.60-8.85L746.60-20.89L723.78-20.89Z" fill="#689cc5" stroke="#5e6fa3" stroke-width="1.5"></path></g></g><style>text {
  font-size: 64px;
  font-family: Arial Black;
  dominant-baseline: central;
  text-anchor: middle;
}</style></svg>